<?xml version="1.0" encoding="UTF-8" standalone="no"?>
<!DOCTYPE svg PUBLIC "-//W3C//DTD SVG 1.1//EN" "http://www.w3.org/Graphics/SVG/1.1/DTD/svg11.dtd">
<svg width="100%" height="100%" viewBox="0 0 425 415" version="1.1" xmlns="http://www.w3.org/2000/svg" xmlns:xlink="http://www.w3.org/1999/xlink" xml:space="preserve" xmlns:serif="http://www.serif.com/" style="fill-rule:evenodd;clip-rule:evenodd;stroke-linejoin:round;stroke-miterlimit:1.5;">
    <g id="Odaiko">
    </g>
    <g id="Okedo" transform="matrix(1,0,0,1,-332.801967,-1842.808185)">
        <g id="Chu" transform="matrix(0.739887,0,0,0.887542,-468.833992,1454.152138)">
            <g transform="matrix(1,0,0,1,740.935514,0)">
                <path d="M899.682,506.209C846.711,608.951 836.212,716.776 899.682,834.431" style="fill:none;stroke:black;stroke-width:10.2px;"/>
            </g>
            <g transform="matrix(-1,0,0,1,2004.095007,0)">
                <path d="M899.682,506.209C846.711,608.951 836.212,716.776 899.682,834.431" style="fill:none;stroke:black;stroke-width:10.2px;"/>
            </g>
            <path d="M1372.515,563.08L1372.515,670.32L1421.378,719.183L1421.378,889.789L1430.712,719.434L1477.472,672.674L1477.472,563.08L1486.085,671.076L1528.366,713.358L1528.366,877.034L1537.198,713.045L1583.958,666.285L1583.958,545.861L1591.891,665.126L1631.669,704.903L1640.617,832.919L1640.617,507.722L1631.669,704.903" style="fill:none;stroke:rgb(255,132,124);stroke-width:11.8px;stroke-linecap:round;stroke-linejoin:miter;stroke-miterlimit:15;stroke-dasharray:11.802,11.802;"/>
            <g transform="matrix(-1,0,0,1,2745.030521,0)">
                <path d="M1372.515,563.08L1372.515,670.32L1421.378,719.183L1421.378,889.789L1430.712,719.434L1477.472,672.674L1477.472,563.08L1486.085,671.076L1528.366,713.358L1528.366,877.034L1537.198,713.045L1583.958,666.285L1583.958,545.861L1591.891,665.126L1631.669,704.903L1640.617,832.919L1640.617,507.722L1631.669,704.903" style="fill:none;stroke:rgb(255,132,124);stroke-width:11.8px;stroke-linecap:round;stroke-linejoin:miter;stroke-miterlimit:15;stroke-dasharray:11.802,11.802;"/>
            </g>
            <g transform="matrix(1,0,0,1,695.439454,492.444892)">
                <path d="M945.178,340.474C945.178,371.861 825.045,397.344 677.076,397.344C529.106,397.344 408.974,371.861 408.974,340.474" style="fill:none;stroke:black;stroke-width:10.2px;stroke-dasharray:10.199,10.199;"/>
            </g>
            <g transform="matrix(1,0,0,1,695.439454,165.73565)">
                <ellipse cx="677.076" cy="340.474" rx="268.102" ry="56.87" style="fill:none;stroke:black;stroke-width:10.2px;"/>
            </g>
            <g transform="matrix(1.606253,0,0,1.580539,541.232103,-2579.798293)">
                <rect x="421.028" y="2042.833" width="198.201" height="62.989" style="fill:white;stroke:black;stroke-width:0.1px;stroke-linejoin:miter;stroke-miterlimit:15;"/>
            </g>
            <g transform="matrix(2.595165,0,0,2.048569,-413.093133,-1936.714237)">
                <g transform="matrix(50,0,0,50,743.459554,1303.03333)">
                </g>
                <text x="637.893px" y="1303.033px" style="font-family:'TimesNewRomanPSMT', 'Times New Roman', serif;font-size:50px;">CHU</text>
            </g>
        </g>
        <g id="Shime--Corda-" serif:id="Shime (Corda)">
        </g>
        <g id="Okedo1" serif:id="Okedo">
        </g>
        <g id="Katsugui">
        </g>
        <g id="Yoku">
        </g>
    </g>
    <g id="Shime">
    </g>
    <g id="Nagado">
    </g>
    <g id="Prancheta1" transform="matrix(0.689388,0,0,0.673416,766.972148,461.878911)">
        <rect x="-1112.54" y="-685.874" width="615.844" height="615.844" style="fill:none;"/>
    </g>
</svg>
